<svg xmlns="http://www.w3.org/2000/svg" viewBox="0 0 32 32">
 <g transform="translate(0 -32)">
  <path d="m 12.471898,42.855022 c -0.134106,0 -0.274291,0.03165 -0.377049,0.134566 l -1.104215,1.103419 c -0.20552,0.205827 -0.20552,0.547728 0,0.753555 l 3.151055,3.175698 -3.151055,3.148787 c -0.205829,0.205971 -0.205829,0.547587 0,0.753555 l 1.104215,1.103421 c 0.205826,0.205971 0.54827,0.205971 0.754095,0 L 16,49.879239 l 3.151055,3.148784 c 0.205518,0.205828 0.548581,0.205828 0.754097,0 l 1.104216,-1.103421 c 0.205519,-0.205828 0.205519,-0.547728 0,-0.753555 l -3.151054,-3.148787 3.151054,-3.175698 c 0.205829,-0.205968 0.205829,-0.547587 0,-0.753555 l -1.104216,-1.103419 c -0.102901,-0.102977 -0.269673,-0.134566 -0.40398,-0.134566 -0.134308,0 -0.247206,0.03158 -0.350117,0.134566 L 16,46.138374 12.848944,42.989588 c -0.102757,-0.102914 -0.242941,-0.134566 -0.377046,-0.134566 z" fill="#fff" color="#000"/>
 </g>
</svg>
