<?xml version="1.0" encoding="UTF-8" standalone="no"?>
<svg width="32px" height="32px" viewBox="0 0 32 32" version="1.1" xmlns="http://www.w3.org/2000/svg" xmlns:xlink="http://www.w3.org/1999/xlink">
    <!-- Generator: Sketch 39.1 (31720) - http://www.bohemiancoding.com/sketch -->
    <title>assets/grid-selection-checked</title>
    <desc>Created with Sketch.</desc>
    <defs>
        <rect id="path-1" x="0" y="0" width="32" height="32" rx="4"></rect>
        <filter x="-50%" y="-50%" width="200%" height="200%" filterUnits="objectBoundingBox" id="filter-2">
            <feGaussianBlur stdDeviation="0.75" in="SourceAlpha" result="shadowBlurInner1"></feGaussianBlur>
            <feOffset dx="0" dy="-0.5" in="shadowBlurInner1" result="shadowOffsetInner1"></feOffset>
            <feComposite in="shadowOffsetInner1" in2="SourceAlpha" operator="arithmetic" k2="-1" k3="1" result="shadowInnerInner1"></feComposite>
            <feColorMatrix values="0 0 0 0 0   0 0 0 0 0   0 0 0 0 0  0 0 0 0.16 0" type="matrix" in="shadowInnerInner1"></feColorMatrix>
        </filter>
    </defs>
    <g id="Page-1" stroke="none" stroke-width="1" fill="none" fill-rule="evenodd">
        <g id="grid-selection-light-sheet" transform="translate(-90.000000, -22.000000)">
            <g id="assets/grid-selection-checked" transform="translate(90.000000, 22.000000)">
                <g id="checkbox-base">
                    <use fill="#F1544D" fill-rule="evenodd" xlink:href="#path-1"></use>
                    <use fill="black" fill-opacity="1" filter="url(#filter-2)" xlink:href="#path-1"></use>
                </g>
                <path d="M13.662727,18.8323765 L9.42611806,14.5957675 C8.64364795,13.8132974 7.37270776,13.8086872 6.59165917,14.5897358 C5.80516526,15.3762297 5.8133111,16.6398148 6.59769093,17.4241947 L12.2424817,23.0689854 C13.0249518,23.8514555 14.295892,23.8560657 15.0769405,23.0750171 C15.1340711,23.0178866 15.1870087,22.9582387 15.2357605,22.8964399 C15.2973524,22.8478975 15.3567486,22.7952091 15.4135775,22.7383802 L26.7403036,11.4116541 C27.5128763,10.6390814 27.5148434,9.37078436 26.7337948,8.58973577 C25.9473009,7.80324186 24.6893304,7.80577309 23.9118765,8.58322695 L13.662727,18.8323765 Z" id="mark-check" fill="#FFFFFF"></path>
            </g>
        </g>
    </g>
</svg>