<?xml version="1.0" encoding="UTF-8" standalone="no"?>
<svg width="16px" height="16px" viewBox="0 0 16 16" version="1.1" xmlns="http://www.w3.org/2000/svg" xmlns:xlink="http://www.w3.org/1999/xlink">
    <!-- Generator: Sketch 39.1 (31720) - http://www.bohemiancoding.com/sketch -->
    <title>assets/menuitem-checkbox-checked-hover</title>
    <desc>Created with Sketch.</desc>
    <defs></defs>
    <g id="Page-1" stroke="none" stroke-width="1" fill="none" fill-rule="evenodd">
        <g id="menuitem-sheet" transform="translate(-87.000000, -24.000000)">
            <g id="menuitem-checkbox" transform="translate(24.000000, 24.000000)">
                <g id="menuitem-checkbox-checked-hover" transform="translate(63.000000, 0.000000)">
                    <g id="menuitem-base" fill-opacity="0" fill="#000000">
                        <rect x="0" y="0" width="16" height="16"></rect>
                    </g>
                    <g id="mark-check-hover" transform="translate(3.000000, 4.000000)" fill="#FFFFFF">
                        <path d="M3.83136349,5.41618823 L1.70352219,3.28834693 C1.32182397,2.90664871 0.686353878,2.9043436 0.295829586,3.29486789 C-0.0974173695,3.68811484 -0.0976142393,4.31563762 0.289308625,4.70256049 L3.13077767,7.54402953 C3.51247588,7.92572775 4.14794598,7.92803287 4.53847027,7.53750857 C4.56713284,7.50884601 4.59370732,7.47893885 4.61819602,7.44797098 C4.64887921,7.4237686 4.67847145,7.3975074 4.70678874,7.36919011 L10.3701518,1.70582704 C10.7518008,1.32417805 10.7574217,0.685392179 10.3668974,0.294867887 C9.97365044,-0.0983790686 9.34466518,-0.0971134544 8.95593825,0.291613476 L3.83136349,5.41618823 Z"></path>
                    </g>
                </g>
            </g>
        </g>
    </g>
</svg>