/* XPM */
static char * bottom_right_active_xpm[] = {
"24 5 3 1",
" 	c None",
".	c #444444",
"#	c #484848",
".......................#",
".......................#",
".......................#",
".......................#",
"########################"};
