<?xml version="1.0" encoding="UTF-8" standalone="no"?>
<!-- Created with Inkscape (http://www.inkscape.org/) -->

<svg
   xmlns:dc="http://purl.org/dc/elements/1.1/"
   xmlns:cc="http://creativecommons.org/ns#"
   xmlns:rdf="http://www.w3.org/1999/02/22-rdf-syntax-ns#"
   xmlns:svg="http://www.w3.org/2000/svg"
   xmlns="http://www.w3.org/2000/svg"
   xmlns:xlink="http://www.w3.org/1999/xlink"
   xmlns:sodipodi="http://sodipodi.sourceforge.net/DTD/sodipodi-0.dtd"
   xmlns:inkscape="http://www.inkscape.org/namespaces/inkscape"
   inkscape:export-ydpi="90.000000"
   inkscape:export-xdpi="90.000000"
   width="24"
   height="24"
   id="svg11300"
   sodipodi:version="0.32"
   inkscape:version="0.48.4 r9939"
   sodipodi:docname="entry-hover.svg"
   inkscape:output_extension="org.inkscape.output.svg.inkscape"
   version="1.0"
   style="display:inline;enable-background:new">
  <sodipodi:namedview
     stroke="#ef2929"
     fill="#f57900"
     id="base"
     pagecolor="#8c8c8c"
     bordercolor="#ff5e00"
     borderopacity="1"
     inkscape:pageopacity="1"
     inkscape:pageshadow="2"
     inkscape:zoom="21.823887"
     inkscape:cx="5.0580652"
     inkscape:cy="13.832854"
     inkscape:current-layer="layer1"
     showgrid="true"
     inkscape:grid-bbox="true"
     inkscape:document-units="px"
     inkscape:showpageshadow="false"
     inkscape:window-width="1600"
     inkscape:window-height="846"
     inkscape:window-x="0"
     inkscape:window-y="25"
     width="400px"
     height="300px"
     inkscape:snap-nodes="true"
     inkscape:snap-bbox="true"
     gridtolerance="10000"
     inkscape:object-nodes="true"
     inkscape:snap-grids="true"
     showguides="true"
     inkscape:guide-bbox="true"
     inkscape:window-maximized="1"
     inkscape:bbox-nodes="true"
     inkscape:bbox-paths="false"
     inkscape:snap-bbox-edge-midpoints="false"
     inkscape:snap-bbox-midpoints="false"
     objecttolerance="10000"
     guidetolerance="10000"
     borderlayer="true"
     showborder="true"
     guidecolor="#ff0b00"
     guideopacity="1"
     guidehicolor="#001aff"
     guidehiopacity="0.49803922"
     inkscape:snap-smooth-nodes="true">
    <inkscape:grid
       type="xygrid"
       id="grid3123"
       empspacing="4"
       visible="true"
       enabled="true"
       snapvisiblegridlinesonly="true" />
  </sodipodi:namedview>
  <defs
     id="defs3">
    <linearGradient
       id="linearGradient3815">
      <stop
         style="stop-color:#000000;stop-opacity:1;"
         offset="0"
         id="stop3817" />
      <stop
         style="stop-color:#525252;stop-opacity:0;"
         offset="1"
         id="stop3819" />
    </linearGradient>
    <linearGradient
       inkscape:collect="always"
       xlink:href="#linearGradient3815"
       id="linearGradient3821"
       x1="24"
       y1="2"
       x2="24"
       y2="22"
       gradientUnits="userSpaceOnUse" />
    <linearGradient
       inkscape:collect="always"
       xlink:href="#linearGradient3815"
       id="linearGradient3825"
       gradientUnits="userSpaceOnUse"
       x1="24"
       y1="2"
       x2="24"
       y2="22"
       gradientTransform="matrix(1,0,0,-1,0,300)" />
  </defs>
  <metadata
     id="metadata4">
    <rdf:RDF>
      <cc:Work
         rdf:about="">
        <dc:format>image/svg+xml</dc:format>
        <dc:type
           rdf:resource="http://purl.org/dc/dcmitype/StillImage" />
        <dc:creator>
          <cc:Agent>
            <dc:title />
          </cc:Agent>
        </dc:creator>
        <dc:source />
        <cc:license
           rdf:resource="" />
        <dc:title></dc:title>
        <dc:subject>
          <rdf:Bag />
        </dc:subject>
        <dc:date />
        <dc:rights>
          <cc:Agent>
            <dc:title />
          </cc:Agent>
        </dc:rights>
        <dc:publisher>
          <cc:Agent>
            <dc:title />
          </cc:Agent>
        </dc:publisher>
        <dc:identifier />
        <dc:relation />
        <dc:language />
        <dc:coverage />
        <dc:description />
        <dc:contributor>
          <cc:Agent>
            <dc:title />
          </cc:Agent>
        </dc:contributor>
      </cc:Work>
      <cc:Work
         rdf:about="">
        <dc:format>image/svg+xml</dc:format>
        <dc:type
           rdf:resource="http://purl.org/dc/dcmitype/StillImage" />
      </cc:Work>
    </rdf:RDF>
  </metadata>
  <g
     style="display:inline"
     inkscape:groupmode="layer"
     inkscape:label="Base"
     id="layer1"
     transform="translate(0,-276)">
    <rect
       style="fill:#484848;fill-opacity:1;stroke:none;opacity:0.5"
       id="rect2999"
       width="22"
       height="22"
       x="1"
       y="1"
       ry="2"
       rx="2"
       transform="translate(0,276)" />
    <rect
       rx="2"
       ry="2"
       y="278"
       x="2"
       height="20"
       width="20"
       id="rect3769"
       style="fill:#232323;fill-opacity:1;stroke:none" />
    <path
       id="path3823"
       d="m 4,298 c -1.108,0 -2,-0.892 -2,-2 l 0,-16 c 0,-1.108 0.892,-2 2,-2 l 16,0 c 1.108,0 2,0.892 2,2 l 0,16 c 0,1.108 -0.892,2 -2,2 l -16,0 z m 1,-1 14,0 c 1.108,0 2,-0.892 2,-2 l 0,-14 c 0,-1.108 -0.892,-2 -2,-2 l -14,0 c -1.108,0 -2,0.892 -2,2 l 0,14 c 0,1.108 0.892,2 2,2 z"
       style="opacity:0.4;fill:url(#linearGradient3825);fill-opacity:1;stroke:none"
       inkscape:connector-curvature="0" />
    <path
       style="fill:#000000;fill-opacity:1;stroke:none;opacity:0.15"
       d="M 4 2 C 2.892 2 2 2.892 2 4 L 2 20 C 2 21.108 2.892 22 4 22 L 20 22 C 21.108 22 22 21.108 22 20 L 22 4 C 22 2.892 21.108 2 20 2 L 4 2 z M 6 4 L 18 4 C 19.108 4 20 4.892 20 6 L 20 18 C 20 19.108 19.108 20 18 20 L 6 20 C 4.892 20 4 19.108 4 18 L 4 6 C 4 4.892 4.892 4 6 4 z "
       id="rect3879"
       transform="translate(0,276)" />
    <path
       style="fill:url(#linearGradient3821);fill-opacity:1;stroke:none;opacity:0.3"
       d="M 4 2 C 2.892 2 2 2.892 2 4 L 2 20 C 2 21.108 2.892 22 4 22 L 20 22 C 21.108 22 22 21.108 22 20 L 22 4 C 22 2.892 21.108 2 20 2 L 4 2 z M 5 3 L 19 3 C 20.108 3 21 3.892 21 5 L 21 19 C 21 20.108 20.108 21 19 21 L 5 21 C 3.892 21 3 20.108 3 19 L 3 5 C 3 3.892 3.892 3 5 3 z "
       id="rect3810"
       transform="translate(0,276)" />
    <path
       style="fill:#ffffff;fill-opacity:1;stroke:none;opacity:0.03"
       d="M 1 20 L 1 21 C 1 22.108 1.892 23 3 23 L 21 23 C 22.108 23 23 22.108 23 21 L 23 20 C 23 21.108 22.108 22 21 22 L 3 22 C 1.892 22 1 21.108 1 20 z "
       id="rect3827"
       transform="translate(0,276)" />
  </g>
</svg>
